<svg width="71" height="65" viewBox="0 0 71 65" fill="none" xmlns="http://www.w3.org/2000/svg">
<path d="M19.4156 0L0 19.4156H39.9567C46.0065 19.4156 50.9307 24.3398 50.9307 30.3896C50.9307 32.8517 50.1569 35.1028 48.75 37.0022C46.7803 38.7608 44.2478 39.816 41.3636 39.816H0V43.0519H39.9567C46.0065 43.0519 50.9307 47.9762 50.9307 54.026C50.9307 56.4881 50.1569 58.7392 48.75 60.5682C46.7803 62.3268 44.2478 63.4524 41.3636 63.4524H0V65H39.9567C43.5444 65 46.71 63.3117 48.6797 60.6385C48.4686 60.9199 48.2576 61.2013 48.0465 61.4827L68.0952 41.2933C68.0952 41.2933 70.3463 38.8312 70.3463 34.6104C70.3463 30.882 67.7435 25.184 61.9048 23.9177L48.0465 37.8463L68.0952 17.6569C68.0952 17.6569 70.3463 15.1948 70.3463 10.974C70.3463 6.75325 67.04 0 59.3723 0H19.4156ZM48.6093 37.1429C48.4686 37.3539 48.2576 37.5649 48.1169 37.7056C48.1169 37.776 48.1169 37.776 48.0465 37.776C48.2576 37.5649 48.4686 37.3539 48.6093 37.1429Z" fill="#FFF3C9"/>
<path d="M30.7877 55.3701L23.7526 51.7476L16.7438 55.3701V31.9023C16.7438 30.8523 17.19 29.8285 17.9775 29.1198H32.0215C31.234 29.8285 30.7877 30.8523 30.7877 31.9023V55.3701Z" fill="#FFD53D"/>
</svg>
