<?xml version="1.0" encoding="UTF-8" standalone="no"?>
<!DOCTYPE svg PUBLIC "-//W3C//DTD SVG 1.1//EN" "http://www.w3.org/Graphics/SVG/1.1/DTD/svg11.dtd">
<svg width="100%" height="100%" viewBox="0 0 316 263" version="1.1" xmlns="http://www.w3.org/2000/svg" xmlns:xlink="http://www.w3.org/1999/xlink" xml:space="preserve" xmlns:serif="http://www.serif.com/" style="fill-rule:evenodd;clip-rule:evenodd;stroke-linejoin:round;stroke-miterlimit:2;">
    <g transform="matrix(1,0,0,1,-193,-54)">
        <g transform="matrix(1,0,0,1,159,39)">
            <clipPath id="_clip1">
                <rect x="34" y="15" width="257" height="262.282"/>
            </clipPath>
            <g clip-path="url(#_clip1)">
                <g transform="matrix(1.11268,0,0,1.11268,192,232.775)">
                    <clipPath id="_clip2">
                        <rect x="-142" y="-195.722" width="284" height="235.722"/>
                    </clipPath>
                    <g clip-path="url(#_clip2)">
                        <g transform="matrix(1,0,0,1,-142,-178)">
                            <clipPath id="_clip3">
                                <rect x="0" y="0" width="284" height="356"/>
                            </clipPath>
                            <g clip-path="url(#_clip3)">
                                <path d="M125.035,345.76C124.197,345.76 123.372,345.357 122.869,344.61L26.283,201.372C25.475,200.176 25.791,198.553 26.987,197.747C28.182,196.941 29.808,197.26 30.612,198.45L127.198,341.686C128.006,342.884 127.69,344.508 126.494,345.314C126.046,345.616 125.538,345.76 125.035,345.76Z" style="fill:rgb(114,85,121);fill-rule:nonzero;"/>
                                <path d="M28.445,345.761C27.953,345.761 27.456,345.622 27.015,345.332C25.808,344.54 25.473,342.921 26.263,341.714L110.603,213.247C111.393,212.043 113.015,211.71 114.219,212.498C115.426,213.291 115.761,214.91 114.971,216.117L30.631,344.583C30.13,345.346 29.296,345.761 28.445,345.761Z" style="fill:rgb(114,85,121);fill-rule:nonzero;"/>
                                <path d="M28.573,93.668C28.573,93.668 -6.708,114.769 1.139,161.059C10.167,214.315 63.263,231.582 109.321,219.001C155.379,206.418 147.703,170.131 147.703,170.131L28.573,93.668Z" style="fill:rgb(148,110,154);fill-rule:nonzero;"/>
                                <path d="M126.696,181.749L92.483,262.743L150.382,283.232L171.019,234.237L153.914,181.749L126.696,181.749Z" style="fill:rgb(215,118,118);fill-rule:nonzero;"/>
                                <path d="M51.877,147.75C51.877,147.75 48.14,190.429 58.626,195.889C69.114,201.352 145.723,209.69 149.61,213.106C153.499,216.519 179.59,299.29 179.59,299.29L243.422,292.91C243.422,292.91 220.351,178.864 203.558,167.257C190.938,158.534 121.033,147.75 121.033,147.75L51.877,147.75Z" style="fill:rgb(215,118,118);fill-rule:nonzero;"/>
                                <path d="M157.562,93.823C157.562,93.823 160.93,89.205 168.579,85.735C180.508,80.327 189.207,79.359 189.207,79.359L189.207,86.131L157.562,93.823Z" style="fill:white;fill-rule:nonzero;"/>
                                <path d="M96.236,2.237C96.236,2.237 82.876,-3.726 70.97,3.82C59.065,11.361 63.483,28.87 63.483,28.87C63.483,28.87 47.466,44.442 45.717,60.304C43.968,76.169 52.161,80.326 52.161,80.326L78.987,68.238L89.548,18.52L96.236,2.237Z" style="fill:rgb(67,25,73);fill-rule:nonzero;"/>
                                <path d="M126.133,64.064C126.133,64.064 130.033,50.926 124.48,43.612C118.63,35.906 109.112,35.423 109.162,29.059C109.276,14.272 98.558,7.443 98.558,7.443L98.107,65.672L126.133,64.064Z" style="fill:rgb(67,25,73);fill-rule:nonzero;"/>
                                <path d="M105.405,53.519C105.405,53.519 121.74,54.543 128.783,62.984C133.709,68.889 156.172,89.765 159.537,93.932C162.591,97.709 183.189,95.136 189.207,92.158C189.706,91.912 190.268,92.192 190.378,92.743C191.664,99.324 197.546,115.935 195.836,131.162C195.533,133.848 169.93,153.75 145.984,145.949C122.039,138.148 113.994,115.505 113.994,115.505L105.405,53.519Z" style="fill:rgb(249,194,94);fill-rule:nonzero;"/>
                                <path d="M139.258,154.139C139.258,154.139 90.315,162.314 89.452,155.733C87.48,140.702 76.229,61.775 76.229,61.775L82.928,51.185L104.346,53.705C104.346,53.705 114.613,54.803 124.655,82.323C134.701,109.844 139.258,154.139 139.258,154.139Z" style="fill:rgb(249,194,94);fill-rule:nonzero;"/>
                                <path d="M80.827,41.407L81.212,56.802C81.212,56.802 84.099,61.158 93.125,61.666C99.847,62.042 101.885,58.544 101.885,58.544L99.922,45.11L83.571,41.942L80.827,41.407Z" style="fill:rgb(255,154,124);fill-rule:nonzero;"/>
                                <path d="M83.571,41.942C83.619,42.361 83.792,42.853 84.054,43.415C87.692,51.021 97.151,52.441 101.036,52.69L99.922,45.109L83.571,41.942Z" style="fill-rule:nonzero;"/>
                                <path d="M102.475,9.934C102.475,9.934 111.039,29.034 108.124,39.838C105.207,50.643 95.375,49.04 89.48,47.013C83.584,44.987 80.824,41.409 80.824,41.409C80.824,41.409 75.355,43.322 71.637,38.258C67.916,33.189 70.12,27.308 73.24,25.935C76.361,24.564 80.107,26.789 80.107,26.789L77.136,21.244C77.136,21.244 89.149,-7.201 102.475,9.934Z" style="fill:rgb(255,154,124);fill-rule:nonzero;"/>
                                <path d="M80.107,26.788C80.107,26.788 88.357,28.453 94.086,19.276C99.817,10.095 99.291,6.327 99.291,6.327L105,15.802C105,15.802 106.275,9.23 103.647,5.045C101.019,0.855 98.291,1.725 98.291,1.725L80.105,6.267L75.316,20.845L80.107,26.788Z" style="fill:rgb(67,25,73);fill-rule:nonzero;"/>
                                <path d="M101.82,34.376C101.754,34.376 101.688,34.369 101.622,34.346C101.265,34.237 101.067,33.859 101.174,33.503C102.246,30.008 99.612,26.217 99.587,26.18C99.37,25.875 99.443,25.454 99.746,25.24C100.051,25.021 100.472,25.097 100.689,25.399C100.814,25.577 103.733,29.764 102.467,33.9C102.378,34.189 102.11,34.376 101.82,34.376Z" style="fill-rule:nonzero;"/>
                                <path d="M93.289,21.166C93.212,21.166 93.135,21.153 93.059,21.125C92.709,20.998 92.527,20.613 92.652,20.26C94.155,16.077 96.853,16.763 96.969,16.799C97.329,16.899 97.541,17.27 97.441,17.63C97.345,17.983 96.981,18.206 96.621,18.104C96.525,18.09 94.977,17.792 93.925,20.718C93.825,20.996 93.565,21.166 93.289,21.166Z" style="fill-rule:nonzero;"/>
                                <path d="M105.386,18.22C105.081,18.22 104.805,18.013 104.728,17.705C104.671,17.473 104.414,16.826 103.952,16.642C103.514,16.476 102.963,16.74 102.569,16.995C102.253,17.193 101.836,17.106 101.636,16.79C101.433,16.476 101.524,16.059 101.838,15.856C102.802,15.239 103.683,15.084 104.457,15.392C105.643,15.868 106.005,17.229 106.042,17.384C106.131,17.748 105.908,18.113 105.543,18.199C105.491,18.213 105.436,18.22 105.386,18.22Z" style="fill-rule:nonzero;"/>
                                <path d="M79.316,35.853C79.139,35.853 78.961,35.783 78.827,35.642L73.601,30.134C73.344,29.863 73.355,29.437 73.626,29.18C73.897,28.922 74.323,28.933 74.58,29.205L79.808,34.713C80.063,34.984 80.054,35.412 79.781,35.667C79.651,35.792 79.485,35.853 79.316,35.853Z" style="fill-rule:nonzero;"/>
                                <path d="M73.795,34.387C73.469,34.387 73.18,34.148 73.13,33.813C73.073,33.447 73.325,33.1 73.694,33.046L77.297,32.488C77.668,32.417 78.009,32.684 78.066,33.053C78.123,33.422 77.87,33.768 77.501,33.822L73.899,34.378C73.865,34.385 73.831,34.387 73.795,34.387Z" style="fill-rule:nonzero;"/>
                                <path d="M103.979,158.145C103.979,158.145 81.254,52.856 81.22,51.957L81.186,51.06C81.186,51.06 61.398,56.857 54.567,65.193C49.601,71.255 57.807,155.376 60.194,156.949C62.578,158.518 103.979,158.145 103.979,158.145Z" style="fill:rgb(249,194,94);fill-rule:nonzero;"/>
                                <path d="M139.258,154.139C139.258,154.139 133.948,130.806 121.679,98.613C109.305,66.14 101.035,52.69 101.035,52.69C101.035,52.69 116.057,54.693 121.305,57.576C125.013,59.609 139.41,91.623 141.856,114.634C144.301,137.642 145.706,152.509 145.706,152.509C144.534,153.526 139.258,154.139 139.258,154.139Z" style="fill:rgb(249,194,94);fill-rule:nonzero;"/>
                                <path d="M161.554,96.73C158.899,99.119 154.869,103.272 155.135,105.508C155.17,105.809 155.297,106.244 156.003,106.583C156.584,106.868 157.082,106.868 157.576,106.592C159.671,105.44 160.983,100.098 161.554,96.73ZM156.83,108.145C156.365,108.145 155.889,108.029 155.418,107.804C154.213,107.221 153.869,106.319 153.792,105.668C153.332,101.783 161.163,95.246 162.055,94.515C162.269,94.34 162.568,94.31 162.807,94.442C163.05,94.576 163.187,94.84 163.155,95.114C163.028,96.204 161.814,105.807 158.23,107.776C157.784,108.02 157.312,108.145 156.83,108.145Z" style="fill:rgb(67,25,73);fill-rule:nonzero;"/>
                                <path d="M92.748,62.187C91.954,62.187 91.113,62.137 90.225,62.021C82.399,61.017 80.602,55.7 80.53,55.472C80.416,55.119 80.612,54.741 80.964,54.625C81.315,54.511 81.698,54.703 81.816,55.056C81.88,55.247 83.46,59.792 90.398,60.684C97.494,61.588 101.387,58.084 101.426,58.048C101.699,57.795 102.125,57.811 102.38,58.086C102.635,58.359 102.617,58.785 102.344,59.04C102.187,59.184 98.858,62.187 92.748,62.187Z" style="fill:rgb(67,25,73);fill-rule:nonzero;"/>
                                <path d="M105.18,26.878C104.845,26.878 104.551,26.632 104.501,26.29L103.984,22.774C103.957,22.585 104.009,22.392 104.13,22.241L105.471,20.584C105.708,20.283 106.14,20.24 106.437,20.479C106.733,20.718 106.778,21.153 106.539,21.447L105.389,22.872L105.863,26.09C105.917,26.465 105.658,26.814 105.282,26.871C105.248,26.875 105.214,26.878 105.18,26.878Z" style="fill-rule:nonzero;"/>
                                <path d="M94.72,27.715C94.38,27.715 94.084,27.46 94.039,27.114L93.588,23.591C93.563,23.377 93.636,23.165 93.788,23.013L95.756,21.08C96.027,20.813 96.464,20.813 96.728,21.089C96.994,21.36 96.992,21.795 96.719,22.061L94.997,23.755L95.405,26.941C95.453,27.316 95.186,27.66 94.808,27.71C94.779,27.715 94.749,27.715 94.72,27.715Z" style="fill-rule:nonzero;"/>
                                <path d="M134.585,94.499C134.282,94.499 134.009,94.296 133.932,93.991L130.197,79.53C130.104,79.165 130.323,78.799 130.682,78.705C131.044,78.603 131.413,78.831 131.507,79.19L135.239,93.654C135.332,94.016 135.116,94.383 134.754,94.476C134.697,94.492 134.64,94.499 134.585,94.499Z" style="fill:rgb(67,25,73);fill-rule:nonzero;"/>
                                <path d="M115.547,85.357L115.547,95.61L167.353,96.772C167.353,96.772 165.413,91.065 150.776,87.873C137.767,85.036 115.547,85.357 115.547,85.357Z" style="fill:white;fill-rule:nonzero;"/>
                                <path d="M192.108,83.346L192.108,141.942L161.734,149.089L115.196,149.729L114.046,89.581L160.48,90.58L192.108,83.346Z" style="fill:rgb(234,78,78);fill-rule:nonzero;"/>
                                <path d="M99.355,119.189C99.355,119.189 105.483,114.722 108.589,113.424C111.533,112.196 114.466,111.479 114.466,111.479L115.547,116.634C115.547,116.634 126.473,117.463 134.467,120.15C142.464,122.839 141.581,126.426 141.581,126.426C141.581,126.426 146.766,128.814 145.015,131.139C143.261,133.462 135.164,132.519 135.164,132.519C135.164,132.519 145.538,134.873 141.772,137.654C138.006,140.434 128.932,141.015 128.932,141.015C128.932,141.015 109.857,147.151 102.45,141.265C95.045,135.377 99.355,119.189 99.355,119.189Z" style="fill:rgb(255,154,124);fill-rule:nonzero;"/>
                                <path d="M115.547,117.212C115.46,117.205 109.258,116.279 109.258,116.279C108.941,116.233 108.722,115.939 108.77,115.623C108.816,115.304 109.121,115.085 109.428,115.136L115.633,116.062C115.948,116.11 116.166,116.404 116.118,116.72C116.075,117.01 115.829,117.212 115.547,117.212Z" style="fill-rule:nonzero;"/>
                                <path d="M141.056,126.526C140.972,126.521 125.183,124.265 125.183,124.265C124.869,124.219 124.648,123.925 124.693,123.609C124.739,123.29 125.04,123.092 125.349,123.117L141.136,125.373C141.453,125.421 141.673,125.715 141.628,126.029C141.585,126.318 141.339,126.526 141.056,126.526Z" style="fill-rule:nonzero;"/>
                                <path d="M136.218,133.193C136.131,133.188 126.23,131.737 126.23,131.737C125.914,131.692 125.695,131.398 125.741,131.079C125.789,130.765 126.094,130.563 126.399,130.59L136.3,132.04C136.616,132.088 136.835,132.382 136.789,132.698C136.746,132.985 136.5,133.193 136.218,133.193Z" style="fill-rule:nonzero;"/>
                                <path d="M175.361,110.925C175.999,109.716 176.982,108.735 178.105,107.956C181.903,105.326 193.849,99.836 197.394,103.197C200.791,106.419 194.247,109.675 194.247,109.675C194.247,109.675 200.045,108.104 199.764,112.421C199.528,116.026 195.836,117.212 195.836,117.212C195.836,117.212 202.019,116.158 199.774,121.32C197.526,126.484 184.738,131.075 180.029,130.934C175.323,130.788 178.656,124.615 178.656,124.615C178.656,124.615 173.601,123.793 173.601,120.992C173.601,118.025 177.577,116.898 177.577,116.898C177.577,116.898 173.073,115.272 175.361,110.925Z" style="fill:rgb(255,154,124);fill-rule:nonzero;"/>
                                <path d="M179.058,117.213C178.801,117.213 178.555,117.065 178.443,116.816C178.291,116.475 178.441,116.074 178.78,115.922L193.971,109.059C194.305,108.906 194.711,109.056 194.863,109.398C195.016,109.737 194.866,110.138 194.526,110.29L179.336,117.153C179.247,117.194 179.152,117.213 179.058,117.213Z" style="fill-rule:nonzero;"/>
                                <path d="M180.509,124.59C180.25,124.59 180.002,124.437 179.892,124.184C179.742,123.843 179.897,123.444 180.241,123.294L195.565,116.595C195.9,116.447 196.303,116.6 196.451,116.941C196.604,117.285 196.449,117.681 196.103,117.831L180.78,124.531C180.692,124.569 180.601,124.59 180.509,124.59Z" style="fill-rule:nonzero;"/>
                                <path d="M96.706,38.205C97.355,38.918 98.154,39.631 98.851,39.824C99.507,40.016 100.579,39.642 101.54,39.155L96.706,38.205ZM99.229,41.22C98.974,41.22 98.723,41.193 98.489,41.127C96.565,40.594 94.684,37.875 94.477,37.566C94.324,37.338 94.324,37.04 94.474,36.814C94.627,36.584 94.905,36.473 95.167,36.525L103.523,38.169C103.787,38.221 103.997,38.426 104.054,38.69C104.108,38.952 104.004,39.225 103.785,39.383C103.491,39.592 101.146,41.22 99.229,41.22Z" style="fill-rule:nonzero;"/>
                                <path d="M65.777,57.697C65.777,57.697 19.726,79.632 21.629,125.947C23.271,165.925 91.558,157.117 93.933,157.145C98.503,157.204 103.961,156.186 103.961,156.186C103.961,156.186 102.471,111.968 101.06,110.659C99.648,109.354 71.399,106.387 71.399,106.387L65.777,57.697Z" style="fill:rgb(249,194,94);fill-rule:nonzero;"/>
                                <path d="M159.029,90.437L159.029,149.729L163.67,149.196L163.67,89.808L159.029,90.437Z" style="fill:rgb(216,63,63);fill-rule:nonzero;"/>
                                <path d="M58.133,103.949C56.321,103.949 54.82,104.3 54.003,105.222C53.686,105.575 53.591,105.825 53.636,105.909C54.26,107.071 61.421,106.923 68.594,106.076C65.511,105.051 61.337,103.949 58.133,103.949ZM101.063,111.336C100.965,111.329 71.399,107.071 71.399,107.071C67.201,107.672 53.944,109.33 52.448,106.549C52.199,106.092 52.095,105.333 52.992,104.322C56.863,99.966 70.076,105.126 71.641,105.757C71.652,105.761 101.158,109.99 101.158,109.99C101.527,110.045 101.782,110.386 101.73,110.755C101.682,111.094 101.393,111.336 101.063,111.336Z" style="fill:rgb(67,25,73);fill-rule:nonzero;"/>
                                <path d="M165.256,252.895C164.987,252.895 164.732,252.731 164.627,252.464C159.613,239.595 149.585,214.604 147.52,212.14C145.703,209.97 128.613,208.057 118.271,207.361C117.898,207.336 117.618,207.014 117.643,206.643C117.665,206.27 117.986,205.956 118.362,206.013C121.158,206.202 145.771,207.948 148.556,211.273C151.277,214.52 165.292,250.447 165.887,251.975C166.021,252.321 165.85,252.713 165.502,252.849C165.422,252.879 165.338,252.895 165.256,252.895Z" style="fill:rgb(67,25,73);fill-rule:nonzero;"/>
                                <path d="M157.499,197.253C157.438,197.253 157.381,197.26 157.328,197.269C154.976,197.656 151.499,204.651 149.393,210.021C152.392,207.989 158.353,203.552 158.995,199.99C159.143,199.173 158.982,198.476 158.499,197.863C158.1,197.362 157.756,197.253 157.499,197.253ZM148.038,212.382C147.885,212.382 147.735,212.332 147.61,212.229C147.389,212.049 147.305,211.749 147.403,211.48C147.942,209.964 152.818,196.641 157.11,195.937C157.754,195.83 158.697,195.935 159.56,197.028C160.284,197.945 160.544,199.025 160.325,200.229C159.36,205.583 148.835,212.013 148.389,212.284C148.279,212.35 148.159,212.382 148.038,212.382Z" style="fill:rgb(67,25,73);fill-rule:nonzero;"/>
                                <path d="M21.571,190.497C21.407,190.497 21.243,190.438 21.113,190.317C9.347,179.435 7.164,158.887 7.077,158.017C7.041,157.646 7.309,157.318 7.68,157.279C8.045,157.238 8.382,157.512 8.423,157.885C8.441,158.092 10.645,178.793 22.03,189.324C22.304,189.579 22.322,190.005 22.067,190.279C21.935,190.424 21.753,190.497 21.571,190.497Z" style="fill:rgb(67,25,73);fill-rule:nonzero;"/>
                            </g>
                        </g>
                    </g>
                </g>
                <g transform="matrix(1,0,0,0.375,0,-59.25)">
                    <rect x="150" y="198" width="78" height="72" style="fill:none;"/>
                </g>
            </g>
        </g>
    </g>
</svg>
