<svg width="268" height="184" viewBox="0 0 268 184" fill="none" xmlns="http://www.w3.org/2000/svg">
<path d="M241.059 55.9302C241.059 55.9302 243.44 38.5554 244.433 37.6041C245.423 36.6546 266.673 18.8647 267.621 13.7099C268.569 8.55899 264.876 6.23535 264.876 6.23535C264.876 6.23535 207.213 26.7102 205.664 28.4727C204.114 30.2352 211.738 55.4209 211.738 55.4209L241.059 55.9302Z" fill="#FF9A7C"/>
<path d="M266.464 7.84598L205.827 32.6896L202.886 24.2694L264.051 0.705811L266.464 7.84598Z" fill="black"/>
<path d="M259.527 23.8832L252.702 30.3104L242.912 17.4946L249.786 12.7415L259.527 23.8832Z" fill="black"/>
<path d="M181.287 62.978C181.287 62.978 180.483 45.4592 181.287 44.3425C182.09 43.2277 199.769 21.8649 199.769 16.6236C199.769 11.3843 195.715 9.77173 195.715 9.77173C195.715 9.77173 142.715 40.4063 141.51 42.4205C140.305 44.4367 152.359 67.8157 152.359 67.8157L181.287 62.978Z" fill="#FF9A7C"/>
<path d="M117.914 106.423C117.914 106.423 126.12 97.5472 160.672 96.8072C195.223 96.0673 204.725 98.8753 204.725 98.8753L203.378 47.5333L246.877 41.8403C246.877 41.8403 266.918 94.5893 266.485 119.358C266.052 144.128 245.755 153 239.276 154.48C232.797 155.958 115.062 155.138 115.062 155.138L117.914 106.423Z" fill="#F9C25E"/>
<path d="M5.78309 164.607H254.579C257.297 164.607 259.5 162.397 259.5 159.67C259.5 156.942 257.297 154.732 254.579 154.732H5.78309C3.06463 154.732 0.863437 156.942 0.863437 159.67C0.863437 162.397 3.06463 164.607 5.78309 164.607Z" fill="#946E9A"/>
<path d="M206.453 102.914L186.764 49.8494L143.336 53.3743L156.352 98.4487L206.453 102.914Z" fill="#F9C25E"/>
<path d="M155.994 122.001L122.725 154.465C122.725 154.465 111.491 157.759 96.8963 158.151C82.3021 158.543 70.9435 158.151 70.9435 158.151L63.5468 149.133L53.1269 158.326L17.4364 127.181C17.4364 127.181 35.5767 111.943 58.4662 101.559C81.3576 91.174 114.964 90.6397 155.994 122.001Z" fill="#D77676"/>
<path d="M56.5258 150.915C56.8553 150.915 57.1216 150.65 57.1216 150.319L57.1081 118.162C57.1081 117.832 56.8418 117.566 56.5123 117.566C56.1847 117.566 55.9184 117.832 55.9184 118.162L55.9319 150.319C55.9319 150.65 56.1963 150.915 56.5258 150.915Z" fill="#5D2866"/>
<path d="M114.069 135.66C116.537 135.694 120.907 141.455 123.294 145.016C119.646 143.444 113.73 140.413 112.878 137.77C112.7 137.217 112.763 136.738 113.075 136.261C113.426 135.729 113.807 135.66 114.069 135.66ZM124.821 146.88C124.995 146.88 125.164 146.804 125.28 146.661C125.441 146.465 125.46 146.185 125.324 145.967C124.6 144.797 118.131 134.524 114.11 134.466C113.276 134.487 112.581 134.847 112.083 135.604C111.569 136.386 111.454 137.238 111.744 138.139C113.136 142.452 124.142 146.663 124.61 146.842C124.677 146.867 124.75 146.88 124.821 146.88Z" fill="#5D2866"/>
<path d="M39.1979 144.82L20.4618 129.821C20.4618 129.821 16.1168 134.403 15.9406 153.265C15.7624 172.126 45.3245 179.643 45.3245 179.643L48.1426 161.605L39.1979 144.82Z" fill="#FF9A7C"/>
<path d="M40.5596 143.129V137.129C40.5596 137.129 66.9684 139.352 67.0067 144.48C67.0546 151.405 51.6366 151.83 51.6366 151.83L40.5596 143.129Z" fill="white"/>
<path d="M98.7314 135.249V145.677L66.1041 150.119L66.1808 142.689C66.1808 142.689 76.6811 136.275 98.7314 135.249Z" fill="white"/>
<path d="M102.462 150.119C102.462 150.119 103.573 141.916 98.7318 143.283C93.8888 144.649 96.1704 151.83 96.1704 151.83L102.462 150.119Z" fill="#E87054"/>
<path d="M95.044 89.0193L97.8755 99.9189C97.8755 99.9189 94.6743 104.803 86.8848 105.625C78.9516 106.459 80.4363 102.427 80.4363 102.427L79.8138 96.8091L92.8562 90.1398L95.044 89.0193Z" fill="#FF9A7C"/>
<path d="M92.8756 90.1877C92.9427 90.5548 92.9254 91.0161 92.8507 91.5581C91.774 98.9289 84.429 102.427 80.4366 102.427L79.9442 97.1396L92.8756 90.1877Z" fill="black"/>
<path d="M68.6278 68.1156C68.6278 68.1156 66.4017 86.4763 71.6701 94.8331C76.9403 103.19 84.7949 99.2652 89.2261 96.0151C93.6553 92.7612 95.0462 89.021 95.0462 89.021C95.0462 89.021 100.146 89.2075 101.954 83.9566C103.761 78.7076 100.376 74.3217 97.393 73.9777C94.4101 73.6336 91.8373 76.4935 91.8373 76.4935L92.8948 71.0351C92.8948 71.0351 75.3713 50.1681 68.6278 68.1156Z" fill="#FF9A7C"/>
<path d="M75.3713 88.6018C75.4881 88.6018 75.6031 88.5692 75.7065 88.5C75.9785 88.3136 76.0494 87.9426 75.8636 87.6697C74.0532 85 75.2793 81.1119 75.2908 81.0734C75.3942 80.7601 75.2218 80.4219 74.9096 80.3219C74.6011 80.2124 74.2639 80.3911 74.1605 80.7025C74.1011 80.8851 72.7351 85.1826 74.8789 88.3424C74.9957 88.5096 75.1835 88.6018 75.3713 88.6018Z" fill="black"/>
<path d="M94.6896 83.9623C94.908 83.9623 95.1207 83.8412 95.2222 83.6298L98.184 77.6159C98.3315 77.3199 98.2088 76.9644 97.9157 76.8164C97.6226 76.6761 97.2625 76.7933 97.1188 77.0874L94.1571 83.1013C94.0115 83.3973 94.1321 83.7548 94.4252 83.9009C94.5095 83.9412 94.5996 83.9623 94.6896 83.9623Z" fill="black"/>
<path d="M95.776 81.7582C95.8622 81.7524 99.0404 81.2796 99.0404 81.2796C99.3641 81.2296 99.5883 80.9259 99.5404 80.5992C99.4925 80.2744 99.1975 80.0572 98.8642 80.0976L95.6878 80.5704C95.364 80.6185 95.1399 80.9221 95.1859 81.2489C95.23 81.5448 95.4848 81.7582 95.776 81.7582Z" fill="black"/>
<path d="M91.8368 76.4936C91.8368 76.4936 90.5073 78.1043 88.7142 76.5744C86.9191 75.0464 87.854 68.6116 87.854 68.6116C87.854 68.6116 83.2006 71.2889 79.6028 70.5797C76.0031 69.8724 73.093 65.7728 73.093 65.7728C73.093 65.7728 72.2693 71.2293 64.8055 71.237C57.3397 71.2447 53.1883 62.3229 59.8935 58.1791C66.5986 54.0352 71.57 56.0437 71.57 56.0437C71.57 56.0437 70.4263 48.9958 80.4553 49.5647C89.5954 50.0817 94.1377 59.9722 94.1377 59.9722C94.1377 59.9722 99.1359 58.6864 101.73 63.772C104.322 68.8595 99.2393 74.6812 99.2393 74.6812C99.2393 74.6812 95.0381 73.6837 91.8368 76.4936Z" fill="black"/>
<path d="M80.8426 80.3068C80.8751 80.3068 80.9096 80.3049 80.9422 80.2972C81.2659 80.2434 81.4843 79.9339 81.4269 79.6091L80.8885 76.4724C80.8349 76.1456 80.5207 75.9131 80.2027 75.9861C79.879 76.0399 79.6605 76.3494 79.718 76.6742L80.2563 79.8109C80.3042 80.1011 80.5571 80.3068 80.8426 80.3068Z" fill="black"/>
<path d="M71.6892 82.3366C72.1049 82.2789 72.3271 81.9753 72.2773 81.6485L71.7983 78.5003C71.7504 78.1755 71.4363 77.941 71.1202 78.0025C70.7945 78.0506 70.5723 78.3542 70.624 78.681L71.103 81.8292C71.147 82.1232 71.3999 82.3366 71.6892 82.3366Z" fill="black"/>
<path d="M81.6738 74.3622C81.7485 74.3622 81.8233 74.3488 81.8942 74.3199C82.2007 74.1969 82.3501 73.849 82.2256 73.5415C81.2773 71.1717 78.373 71.4946 78.2484 71.51C77.9228 71.5484 77.691 71.8464 77.7312 72.1712C77.7676 72.4979 78.0607 72.7304 78.3883 72.6958C78.4764 72.6901 80.5148 72.4691 81.1221 73.9894C81.216 74.2219 81.4382 74.3622 81.6738 74.3622Z" fill="black"/>
<path d="M69.5376 76.1286C69.8576 76.1286 70.12 75.8748 70.1334 75.5539C70.1411 75.427 70.2599 74.3545 72.0702 74.318C72.3978 74.3103 72.6603 74.0374 72.6527 73.7088C72.645 73.382 72.3826 73.1245 72.0588 73.1245C69.6373 73.1726 68.9629 74.7121 68.9438 75.5174C68.9361 75.848 69.1966 76.1209 69.5223 76.1286H69.5376Z" fill="black"/>
<path d="M79.3944 93.0092C79.4883 93.0092 79.5822 92.9881 79.6722 92.94C79.7642 92.8901 81.9558 91.6926 81.7297 89.4324C81.6991 89.1037 81.3983 88.8404 81.0822 88.8981C80.7546 88.9289 80.5151 89.2229 80.5477 89.5477C80.6933 91.0084 79.176 91.8522 79.109 91.8868C78.8216 92.0425 78.7124 92.4057 78.8676 92.694C78.9768 92.8958 79.1798 93.0092 79.3944 93.0092Z" fill="black"/>
<path d="M39.1977 139.812L40.2399 180.417L67.0375 183.706L99.8794 180.915V138.395L66.1812 142.689L39.1977 139.812Z" fill="#FCBC49"/>
<path d="M64.5584 142.406H67.6523V183.706H64.5584V142.406Z" fill="#EAA22D"/>
<path d="M197.57 11.0655L142.434 46.5396L138.018 38.794L193.903 4.48462L197.57 11.0655Z" fill="black"/>
<path d="M193.648 28.1019L188.1 35.663L176.153 24.8422L182.052 18.9167L193.648 28.1019Z" fill="black"/>
<path d="M206.273 102.308C208.315 104.785 211.191 108.825 210.909 110.991C210.85 111.453 210.649 111.776 210.281 112.012C209.899 112.254 209.654 112.195 209.489 112.114C207.982 111.374 206.825 106.306 206.273 102.308ZM209.783 113.38C210.118 113.38 210.501 113.284 210.921 113.017C211.581 112.598 211.986 111.949 212.089 111.145C212.57 107.438 206.602 100.818 205.897 100.051C205.744 99.9227 205.669 99.8881 205.589 99.8708C204.819 99.6748 178.343 93.0401 156.559 95.9903C156.231 96.0345 156.003 96.3344 156.047 96.6611C156.092 96.9878 156.402 97.2147 156.716 97.1724C177.021 94.4278 201.491 100.101 204.909 100.93C205.15 103.173 206.258 111.862 208.968 113.184C209.183 113.29 209.459 113.38 209.783 113.38Z" fill="white"/>
<path d="M151.118 126.759C151.118 126.759 170.902 153.538 150.458 168.41C130.013 183.281 99.8796 180.915 99.8796 180.915L95.1667 158.326L130.436 142.769L151.118 126.759Z" fill="#FF9A7C"/>
<path d="M47.8896 156.091C47.3283 155.022 46.4624 154.155 45.4757 153.467C42.1289 151.142 31.6076 146.291 28.4849 149.264C25.4925 152.11 31.2551 154.986 31.2551 154.986C31.2551 154.986 26.1515 153.6 26.3986 157.413C26.6055 160.596 29.8565 161.647 29.8565 161.647C29.8565 161.647 24.412 160.715 26.389 165.276C28.368 169.837 39.6327 173.896 43.7784 173.771C47.926 173.643 44.9891 168.19 44.9891 168.19C44.9891 168.19 49.4414 167.461 49.4395 164.986C49.4395 162.364 45.9394 161.369 45.9394 161.369C45.9394 161.369 49.9069 159.933 47.8896 156.091Z" fill="#FF9A7C"/>
<path d="M44.6327 161.647C44.8588 161.647 45.0771 161.517 45.1748 161.297C45.3109 160.996 45.1768 160.644 44.8779 160.506L31.5001 154.442C31.1994 154.305 30.8488 154.44 30.7128 154.74C30.5768 155.041 30.7109 155.393 31.0098 155.532L44.3875 161.595C44.468 161.63 44.5503 161.647 44.6327 161.647Z" fill="black"/>
<path d="M43.3551 168.165C43.5831 168.165 43.8034 168.03 43.8992 167.805C44.0333 167.504 43.8934 167.152 43.5926 167.021L30.0942 161.102C29.803 160.973 29.4447 161.105 29.3126 161.409C29.1804 161.711 29.3183 162.062 29.6191 162.193L43.1176 168.113C43.1942 168.148 43.2746 168.165 43.3551 168.165Z" fill="black"/>
<path d="M85.9787 156.091C86.5381 155.022 87.4059 154.155 88.3944 153.467C91.7394 151.142 102.261 146.291 105.383 149.264C108.376 152.11 102.613 154.986 102.613 154.986C102.613 154.986 107.719 153.6 107.47 157.413C107.265 160.596 104.01 161.647 104.01 161.647C104.01 161.647 109.458 160.715 107.479 165.276C105.5 169.837 94.2356 173.896 90.0899 173.771C85.9442 173.643 88.8811 168.19 88.8811 168.19C88.8811 168.19 84.4289 167.461 84.4289 164.986C84.4289 162.364 87.9309 161.369 87.9309 161.369C87.9309 161.369 83.9633 159.933 85.9787 156.091Z" fill="#FF9A7C"/>
<path d="M89.2333 161.647C89.3157 161.647 89.3981 161.63 89.4785 161.595L102.858 155.531C103.157 155.393 103.289 155.041 103.155 154.74C103.021 154.442 102.669 154.307 102.368 154.442L88.99 160.506C88.6892 160.644 88.5571 160.996 88.6912 161.297C88.7908 161.516 89.0073 161.647 89.2333 161.647Z" fill="black"/>
<path d="M90.5114 168.165C90.5918 168.165 90.6723 168.147 90.7508 168.113L104.247 162.193C104.55 162.062 104.688 161.711 104.556 161.409C104.424 161.105 104.067 160.975 103.772 161.101L90.2738 167.021C89.973 167.152 89.8351 167.504 89.9673 167.805C90.065 168.03 90.2834 168.165 90.5114 168.165Z" fill="black"/>
<path d="M94.6896 170.291C94.6896 170.291 90.8849 180.867 99.8794 180.915C108.872 180.959 107.912 170.291 107.912 170.291L98.9522 167.567L94.6896 170.291Z" fill="#FF9A7C"/>
<path d="M85.632 106.261C86.0382 106.261 86.4654 106.248 86.9194 106.219C95.4158 105.716 99.4446 99.1885 99.6113 98.9137C99.7799 98.6292 99.6898 98.264 99.4101 98.093C99.1285 97.9219 98.7627 98.0123 98.5922 98.2929C98.5558 98.3563 94.7051 104.56 86.8486 105.029C80.6243 105.373 79.9403 102.971 79.9346 102.948C79.8541 102.635 79.5361 102.441 79.2238 102.508C78.9096 102.581 78.7066 102.883 78.7717 103.202C78.7985 103.332 79.469 106.261 85.632 106.261Z" fill="#5D2866"/>
</svg>
