<svg width="200" height="200" viewBox="0 0 200 200" fill="none" xmlns="http://www.w3.org/2000/svg">
<path d="M117.125 105.708C117.125 101.166 115.321 96.8106 112.109 93.599C108.898 90.3875 104.542 88.5833 100 88.5833C95.4582 88.5833 91.1024 90.3875 87.8908 93.599C84.6792 96.8106 82.875 101.166 82.875 105.708" stroke="#D77676" stroke-width="5" stroke-linecap="round" stroke-linejoin="round"/>
<path d="M54.3335 142.813V57.1876C54.3335 53.4027 55.837 49.7729 58.5133 47.0966C61.1896 44.4203 64.8195 42.9167 68.6043 42.9167H139.958C141.472 42.9167 142.924 43.5182 143.995 44.5887C145.065 45.6592 145.667 47.1111 145.667 48.6251V151.375C145.667 152.889 145.065 154.341 143.995 155.411C142.924 156.482 141.472 157.083 139.958 157.083H68.6043C64.8195 157.083 61.1896 155.58 58.5133 152.904C55.837 150.227 54.3335 146.597 54.3335 142.813ZM54.3335 142.813C54.3335 139.028 55.837 135.398 58.5133 132.722C61.1896 130.045 64.8195 128.542 68.6043 128.542H145.667" stroke="#D77676" stroke-width="5" stroke-linecap="round" stroke-linejoin="round"/>
<path d="M100 88.5833C106.305 88.5833 111.417 83.4719 111.417 77.1667C111.417 70.8614 106.305 65.75 100 65.75C93.6949 65.75 88.5835 70.8614 88.5835 77.1667C88.5835 83.4719 93.6949 88.5833 100 88.5833Z" stroke="#D77676" stroke-width="5" stroke-linecap="round" stroke-linejoin="round"/>
</svg>
